<svg xmlns="http://www.w3.org/2000/svg" xmlns:svg="http://www.w3.org/2000/svg" id="svg5" width="1000.377" height="468.875" version="1.1" viewBox="0 0 264.683 124.056" xml:space="preserve"><g id="layer1" transform="translate(-326.66953,-174.65385)"><g id="g40473"><path style="fill:#d8327a;fill-opacity:1;stroke-width:3.64943" id="path36964" d="m 393.06254,232.31723 h 57.6634 c -2.10744,-30.8856 -26.7778,-55.55595 -57.6634,-57.66339 z"/><path style="fill:#f6ae2e;fill-opacity:1;stroke-width:3.64943" id="path36966" d="m 434.58173,278.69167 c 9.30145,-10.08745 15.31536,-23.25468 16.30698,-37.8076 h -54.11458 z"/><path style="fill:#626b84;fill-opacity:1;stroke-width:3.64943" id="path36968" d="m 384.4957,234.82731 v -60.17347 c -32.30126,2.20382 -57.82616,29.08656 -57.82616,61.94681 0,15.60878 5.77191,29.86186 15.27896,40.77387 z"/><path style="fill:#fa8dc4;fill-opacity:1;stroke-width:3.64943" id="path36970" d="m 387.52408,243.91245 -39.51883,39.51883 c 10.91202,9.50704 25.16509,15.27895 40.77387,15.27895 14.97056,0 28.69035,-5.3093 39.40961,-14.13314 z"/><path style="opacity:1;fill:none;fill-opacity:1;stroke:#293044;stroke-width:3;stroke-linecap:round;stroke-linejoin:round;stroke-dasharray:none;stroke-opacity:1" id="path39793" d="M 481.43934,179.89184 V 288.30509 H 589.85258"/><path style="fill:none;fill-opacity:1;stroke:#f6ae2e;stroke-width:2;stroke-linecap:round;stroke-linejoin:round;stroke-dasharray:none;stroke-opacity:1" id="path11035-8-5-8" d="m 486.38854,277.3286 21.84057,-29.16583 17.10446,13.18738 49.96593,-66.72438 13.4289,10.35357"/></g></g></svg>