<svg xmlns="http://www.w3.org/2000/svg" xmlns:svg="http://www.w3.org/2000/svg" xmlns:xlink="http://www.w3.org/1999/xlink" id="svg5" width="224.426" height="158.2" version="1.1" viewBox="0 0 59.379 41.857" xml:space="preserve"><defs id="defs2"><linearGradient id="linearGradient9867"><stop style="stop-color:#252617;stop-opacity:1" id="stop9863" offset="0"/><stop style="stop-color:#49567a;stop-opacity:1" id="stop9865" offset="1"/></linearGradient><linearGradient id="linearGradient54539"><stop style="stop-color:#b50660;stop-opacity:1" id="stop54535" offset="0"/><stop style="stop-color:#f84ea4;stop-opacity:1" id="stop54537" offset="1"/></linearGradient><linearGradient id="linearGradient53249"><stop style="stop-color:#f96cb4;stop-opacity:1" id="stop53245" offset="0"/><stop style="stop-color:#fa8dc4;stop-opacity:1" id="stop53247" offset="1"/></linearGradient><linearGradient id="linearGradient52437"><stop style="stop-color:#293044;stop-opacity:1" id="stop52433" offset="0"/><stop style="stop-color:#171b26;stop-opacity:1" id="stop52435" offset="1"/></linearGradient><linearGradient id="linearGradient52439" x1="161.067" x2="161.067" y1="5.484" y2="38.89" gradientTransform="translate(0,-39.715318)" gradientUnits="userSpaceOnUse" xlink:href="#linearGradient52437"/><linearGradient id="linearGradient53251" x1="-46.715" x2="-13.891" y1="182.665" y2="182.665" gradientUnits="userSpaceOnUse" xlink:href="#linearGradient53249"/><linearGradient id="linearGradient54526" x1="-46.715" x2="-13.891" y1="182.665" y2="182.665" gradientTransform="matrix(0.93886669,0,0,0.93886669,-1.312529,11.166898)" gradientUnits="userSpaceOnUse" xlink:href="#linearGradient54539"/><linearGradient id="linearGradient9860" x1="161.067" x2="161.067" y1="5.484" y2="38.89" gradientTransform="matrix(0.96114192,0,0,0.93333333,6.1634249,-38.391473)" gradientUnits="userSpaceOnUse" xlink:href="#linearGradient9867"/></defs><g id="layer1" transform="translate(-132.60288,-4.8576582)"><g id="g18352"><rect style="fill:#f96cb4;fill-opacity:1;stroke:none;stroke-width:.3;stroke-dasharray:none;stroke-opacity:1" id="rect53335" width="2.795" height="3.627" x="189.187" y="16.803" rx=".429" ry=".462"/><rect style="fill:#f96cb4;fill-opacity:1;stroke:none;stroke-width:.3;stroke-dasharray:none;stroke-opacity:1" id="rect53335-7" width="2.795" height="5.557" x="189.187" y="21.704" rx=".429" ry=".462"/><rect style="fill:url(#linearGradient52439);fill-opacity:1;stroke-width:.3;stroke-dasharray:none" id="rect2545-8-7" width="52.021" height="30" x="132.603" y="-34.858" rx="1.082" ry="1.082" transform="scale(1,-1)"/><rect style="fill:url(#linearGradient9860);fill-opacity:1;stroke-width:.3;stroke-dasharray:none" id="rect2545-8-7-6" width="50" height="28" x="133.614" y="-33.858" rx="1.04" ry="1.01" transform="scale(1,-1)"/><rect style="opacity:1;fill:#383f4b;fill-opacity:1;stroke:none;stroke-width:.3;stroke-opacity:1" id="rect11874" width="46.845" height="2.588" x="135.191" y="30.176" rx="1.236" ry="1.236"/><rect style="fill:url(#linearGradient53251);fill-opacity:1;stroke-width:.3;stroke-dasharray:none" id="rect2545-8-7-8" width="32.823" height="17.416" x="-46.715" y="173.957" rx="1.427" ry="1.427" transform="rotate(-90)"/><rect style="fill:url(#linearGradient54526);fill-opacity:1;stroke-width:.3;stroke-dasharray:none" id="rect2545-8-7-8-6" width="31.703" height="16.352" x="-46.058" y="174.489" rx="1.34" ry="1.34" transform="rotate(-90)"/><path id="rect55319" style="opacity:1;fill:#fa8dc4;stroke-width:.3" d="m 175.65336,18.809707 c -0.35505,0 -0.64079,0.286254 -0.64079,0.641304 v 2.037602 c 0,0.35505 0.28574,0.640788 0.64079,0.640788 h 0.0686 c 0.0315,0.436424 -0.23665,0.70271 -0.67477,0.954463 1.26432,0.0643 1.98683,-0.413578 2.71921,-0.954463 h 11.91038 c 0.35505,0 0.64079,-0.285738 0.64079,-0.640788 v -2.037602 c 0,-0.35505 -0.28574,-0.641304 -0.64079,-0.641304 z"/><path id="rect61917-0" style="fill:#fa8dc4;fill-opacity:1;stroke-width:.3" d="m 190.86597,35.649685 v 9.236057 c 0,0.654065 -0.61697,1.180622 -1.38334,1.180622 h -13.60825 c -0.76637,0 -1.38334,-0.526557 -1.38334,-1.180622 v -9.236093 c 5.09205,-0.0044 11.00653,0.0089 16.37493,3.6e-5 z"/><text xml:space="preserve" style="font-style:normal;font-variant:normal;font-weight:400;font-stretch:normal;font-size:.790516px;font-family:Nunito;-inkscape-font-specification:Nunito;fill:#191e2a;fill-opacity:1;stroke-width:.3" id="text690" x="175.724" y="20.23"><tspan id="tspan688" style="fill:#191e2a;fill-opacity:1;stroke-width:.3" x="175.724" y="20.23">Your Boss emailed you back about your</tspan><tspan style="fill:#191e2a;fill-opacity:1;stroke-width:.3" id="tspan1398" x="175.724" y="21.218">promotion.</tspan></text><g id="g17507" transform="translate(-0.35479287)"><circle style="opacity:1;fill:#fa8dc4;fill-opacity:1;stroke:none;stroke-width:.3;stroke-dasharray:none;stroke-opacity:1" id="path63008" cx="181.63" cy="15.978" r=".988"/><text xml:space="preserve" style="font-style:normal;font-variant:normal;font-weight:400;font-stretch:normal;font-size:.790516px;font-family:Nunito;-inkscape-font-specification:Nunito;fill:#191e2a;fill-opacity:1;stroke-width:.3" id="text690-90" x="183.042" y="16.253"><tspan style="fill:#191e2a;fill-opacity:1;stroke-width:.3" id="tspan1398-6" x="183.042" y="16.253">Bonsai</tspan></text></g><path id="rect55319-1" style="fill:#fa8dc4;stroke-width:.3" d="m 175.65336,24.492786 c -0.35505,0 -0.64079,0.286254 -0.64079,0.641304 v 2.037602 c 0,0.35505 0.28574,0.640788 0.64079,0.640788 h 0.0686 c 0.0315,0.436424 -0.23665,0.70271 -0.67477,0.954463 1.26432,0.0643 1.98683,-0.413578 2.71921,-0.954463 h 11.91038 c 0.35505,0 0.64079,-0.285738 0.64079,-0.640788 V 25.13409 c 0,-0.35505 -0.28574,-0.641304 -0.64079,-0.641304 z"/><text xml:space="preserve" style="font-style:normal;font-variant:normal;font-weight:400;font-stretch:normal;font-size:.790516px;font-family:Nunito;-inkscape-font-specification:Nunito;fill:#191e2a;fill-opacity:1;stroke-width:.3" id="text690-9" x="175.724" y="25.913"><tspan style="fill:#191e2a;fill-opacity:1;stroke-width:.3" id="tspan1398-2" x="175.724" y="25.913">Meeting with shareholders today in the</tspan><tspan style="fill:#191e2a;fill-opacity:1;stroke-width:.3" id="tspan1439" x="175.724" y="26.902">A. Margatroid Conference room.</tspan></text><rect style="fill:#f96cb4;fill-opacity:1;stroke-width:.3" id="rect7359-7" width="6.446" height=".429" x="179.442" y="44.97" rx=".094" ry=".094"/><rect style="fill:#fa8dc4;fill-opacity:1;stroke-width:.3" id="rect7927" width="11.882" height="1.639" x="178.448" y="33.356" rx=".549" ry=".408"/><rect style="fill:#f96cb4;fill-opacity:1;stroke-width:.3" id="rect7927-4" width="1.436" height="1.346" x="175.085" y="37.921" rx=".451" ry=".335"/><rect style="fill:#f96cb4;fill-opacity:1;stroke-width:.3" id="rect7927-4-9" width="1.436" height="1.346" x="178.756" y="37.921" rx=".451" ry=".335"/><rect style="fill:#f96cb4;fill-opacity:1;stroke-width:.3" id="rect7927-4-9-8" width="1.436" height="1.346" x="180.591" y="37.921" rx=".451" ry=".335"/><rect style="fill:#f96cb4;fill-opacity:1;stroke-width:.3" id="rect7927-4-9-8-6" width="1.436" height="1.346" x="182.426" y="37.921" rx=".451" ry=".335"/><rect style="fill:#f96cb4;fill-opacity:1;stroke-width:.3" id="rect7927-4-9-8-6-1" width="1.436" height="1.346" x="184.262" y="37.921" rx=".451" ry=".335"/><rect style="fill:#f96cb4;fill-opacity:1;stroke-width:.3" id="rect7927-4-9-8-6-1-7" width="1.436" height="1.346" x="186.097" y="37.921" rx=".451" ry=".335"/><rect style="fill:#f96cb4;fill-opacity:1;stroke-width:.3" id="rect7927-4-9-8-6-1-7-2" width="1.436" height="1.346" x="187.932" y="37.921" rx=".451" ry=".335"/><rect style="fill:#f96cb4;fill-opacity:1;stroke-width:.3" id="rect7927-4-3" width="1.436" height="1.346" x="176.92" y="37.921" rx=".451" ry=".335"/><rect style="fill:#f96cb4;fill-opacity:1;stroke-width:.3" id="rect7927-4-4" width="1.436" height="1.346" x="175.759" y="39.553" rx=".451" ry=".335"/><rect style="fill:#f96cb4;fill-opacity:1;stroke-width:.3" id="rect7927-4-9-84" width="1.436" height="1.346" x="179.43" y="39.553" rx=".451" ry=".335"/><rect style="fill:#f96cb4;fill-opacity:1;stroke-width:.3" id="rect7927-4-9-8-4" width="1.436" height="1.346" x="181.265" y="39.553" rx=".451" ry=".335"/><rect style="fill:#f96cb4;fill-opacity:1;stroke-width:.3" id="rect7927-4-9-8-6-3" width="1.436" height="1.346" x="183.1" y="39.553" rx=".451" ry=".335"/><rect style="fill:#f96cb4;fill-opacity:1;stroke-width:.3" id="rect7927-4-9-8-6-1-1" width="1.436" height="1.346" x="184.935" y="39.553" rx=".451" ry=".335"/><rect style="fill:#f96cb4;fill-opacity:1;stroke-width:.3" id="rect7927-4-9-8-6-1-1-4" width="1.436" height="1.346" x="186.771" y="39.553" rx=".451" ry=".335"/><rect style="fill:#f96cb4;fill-opacity:1;stroke-width:.3" id="rect7927-4-9-8-6-1-1-4-4" width="1.436" height="1.346" x="188.606" y="39.553" rx=".451" ry=".335"/><rect style="fill:#f96cb4;fill-opacity:1;stroke-width:.3" id="rect7927-4-3-4" width="1.436" height="1.346" x="177.594" y="39.553" rx=".451" ry=".335"/><rect style="fill:#f96cb4;fill-opacity:1;stroke-width:.3" id="rect7927-4-8" width="1.436" height="1.346" x="175.321" y="41.113" rx=".451" ry=".335"/><rect style="fill:#f96cb4;fill-opacity:1;stroke-width:.3" id="rect7927-4-9-6" width="1.436" height="1.346" x="178.992" y="41.113" rx=".451" ry=".335"/><rect style="fill:#f96cb4;fill-opacity:1;stroke-width:.3" id="rect7927-4-9-8-47" width="1.436" height="1.346" x="180.827" y="41.113" rx=".451" ry=".335"/><rect style="fill:#f96cb4;fill-opacity:1;stroke-width:.3" id="rect7927-4-9-8-6-9" width="1.436" height="1.346" x="182.663" y="41.113" rx=".451" ry=".335"/><rect style="fill:#f96cb4;fill-opacity:1;stroke-width:.3" id="rect7927-4-9-8-6-1-11" width="1.436" height="1.346" x="184.498" y="41.113" rx=".451" ry=".335"/><rect style="fill:#f96cb4;fill-opacity:1;stroke-width:.3" id="rect7927-4-9-8-6-1-7-0" width="1.436" height="1.346" x="186.333" y="41.113" rx=".451" ry=".335"/><rect style="fill:#f96cb4;fill-opacity:1;stroke-width:.3" id="rect7927-4-9-8-6-1-7-0-2" width="1.436" height="1.346" x="188.168" y="41.113" rx=".451" ry=".335"/><rect style="fill:#f96cb4;fill-opacity:1;stroke-width:.3" id="rect7927-4-3-0" width="1.436" height="1.346" x="177.157" y="41.113" rx=".451" ry=".335"/><rect style="fill:#f96cb4;fill-opacity:1;stroke-width:.3" id="rect7927-4-4-8" width="1.436" height="1.346" x="175.995" y="42.745" rx=".451" ry=".335"/><rect style="fill:#f96cb4;fill-opacity:1;stroke-width:.3" id="rect7927-4-9-8-6-1-1-6" width="1.436" height="1.346" x="177.774" y="42.745" rx=".451" ry=".335"/><rect style="fill:#f96cb4;fill-opacity:1;stroke-width:.3" id="rect7927-4-9-8-6-1-1-6-7" width="1.436" height="1.346" x="186.828" y="42.709" rx=".451" ry=".335"/><rect style="fill:#f96cb4;fill-opacity:1;stroke-width:.3" id="rect7927-4-9-8-6-1-1-6-7-1" width="1.436" height="1.346" x="188.606" y="42.709" rx=".451" ry=".335"/><rect style="fill:#f96cb4;fill-opacity:1;stroke-width:.3" id="rect7927-4-3-4-0" width="6.933" height="1.346" x="179.552" y="42.745" rx=".451" ry=".335"/><circle style="fill:#fa8dc4;fill-opacity:1;stroke:none;stroke-width:.3;stroke-dasharray:none;stroke-opacity:1" id="path63008-0" cx="175.756" cy="34.175" r=".525"/><circle style="fill:#fa8dc4;fill-opacity:1;stroke:none;stroke-width:.3;stroke-dasharray:none;stroke-opacity:1" id="path63008-0-1" cx="177.393" cy="34.175" r=".525"/><g id="g18142" transform="translate(0.09423071,0.21174469)"><rect style="fill:#f96cb4;fill-opacity:1;stroke-width:.3" id="rect7927-4-3-4-0-1" width="9.495" height="1.08" x="176.904" y="35.927" rx=".451" ry=".335"/><circle style="fill:#f96cb4;fill-opacity:1;stroke:none;stroke-width:.3;stroke-dasharray:none;stroke-opacity:1" id="path63008-0-1-6" cx="175.881" cy="36.467" r=".525"/><circle style="fill:#f96cb4;fill-opacity:1;stroke:none;stroke-width:.3;stroke-dasharray:none;stroke-opacity:1" id="path63008-0-1-6-4" cx="187.433" cy="36.467" r=".525"/><circle style="fill:#f96cb4;fill-opacity:1;stroke:none;stroke-width:.3;stroke-dasharray:none;stroke-opacity:1" id="path63008-0-1-6-4-7" cx="189.287" cy="36.467" r=".525"/></g><path style="opacity:1;fill:#dae8ff;fill-opacity:.0260417;stroke:none;stroke-width:.3;stroke-opacity:1" id="path10842" d="M 133.7169,33.288314 C 133.6136,23.713633 133.6136,15.5116 133.6136,6.4797391 l 0.27508,-0.275087 0.57824,-0.275087 h 7.3274 7.3274 l 8.30189,13.8758299 c 4.56604,7.631708 8.3019,13.899351 8.3019,13.928095 0,0.02875 -7.03319,0.05226 -15.6293,0.05226 h -15.62929 c -0.39726,-0.101307 -0.59496,-0.27055 -0.75002,-0.497436 z"/></g></g></svg>