<?xml version="1.0" encoding="UTF-8" standalone="no"?>
<svg
   version="1.1"
   x="0px"
   y="0px"
   viewBox="0 0 100 75"
   enable-background="new 0 0 60 60"
   xml:space="preserve"
   id="svg3876"
   sodipodi:docname="network.svg"
   width="100"
   height="75"
   inkscape:version="1.2.2 (732a01da63, 2022-12-09)"
   xmlns:inkscape="http://www.inkscape.org/namespaces/inkscape"
   xmlns:sodipodi="http://sodipodi.sourceforge.net/DTD/sodipodi-0.dtd"
   xmlns="http://www.w3.org/2000/svg"
   xmlns:svg="http://www.w3.org/2000/svg"
   xmlns:rdf="http://www.w3.org/1999/02/22-rdf-syntax-ns#"
   xmlns:cc="http://creativecommons.org/ns#"
   xmlns:dc="http://purl.org/dc/elements/1.1/"><metadata
     id="metadata3882"><rdf:RDF><cc:Work
         rdf:about=""><dc:format>image/svg+xml</dc:format><dc:type
           rdf:resource="http://purl.org/dc/dcmitype/StillImage" /></cc:Work></rdf:RDF></metadata><defs
     id="defs3880" /><sodipodi:namedview
     pagecolor="#ffffff"
     bordercolor="#666666"
     borderopacity="1"
     objecttolerance="10"
     gridtolerance="10"
     guidetolerance="10"
     inkscape:pageopacity="0"
     inkscape:pageshadow="2"
     inkscape:window-width="1920"
     inkscape:window-height="1111"
     id="namedview3878"
     showgrid="false"
     inkscape:zoom="4.4500587"
     inkscape:cx="15.168339"
     inkscape:cy="19.437946"
     inkscape:window-x="-9"
     inkscape:window-y="-9"
     inkscape:window-maximized="1"
     inkscape:current-layer="svg3876"
     inkscape:showpageshadow="2"
     inkscape:pagecheckerboard="0"
     inkscape:deskcolor="#d1d1d1" /><rect
     x="-410"
     y="14"
     display="none"
     width="802"
     height="805"
     id="rect3852"
     style="display:none;fill:#000000" /><path
     d="m 25.475001,25.957479 c 0.445232,1.147544 1.181076,2.199613 2.05943,2.945238 -0.0121,0.398193 -0.0298,0.857397 -0.06241,0.991993 -0.08756,0.356743 -0.382826,0.61848 -0.791731,0.700447 -1.750191,0.353485 -4.250198,2.134414 -5.691146,4.054592 -0.476901,0.636179 -0.582157,1.535958 -0.256149,2.188438 0.281297,0.561663 0.8234,0.870904 1.526643,0.870904 h 15.026116 c 0.704174,0 1.246277,-0.309241 1.526643,-0.871371 0.326007,-0.652478 0.219822,-1.552722 -0.25708,-2.187505 -1.440019,-1.920644 -3.939092,-3.701573 -5.691146,-4.055058 -0.407975,-0.08197 -0.703242,-0.343704 -0.7908,-0.701845 -0.03166,-0.129472 -0.04936,-0.56539 -0.06241,-0.990594 0.870903,-0.739105 1.60209,-1.78093 2.049185,-2.918692 0.415426,-0.175579 0.748884,-0.688807 0.876492,-1.390653 0.1155,-0.703243 -0.03912,-1.307286 -0.377236,-1.610007 0.0019,-1.482398 -0.02328,-2.872585 -0.584949,-3.924655 -0.680886,-1.275619 -2.008199,-1.871279 -4.225045,-1.875005 -2.170274,0.0037 -3.497586,0.599386 -4.178474,1.875005 -0.557938,1.044619 -0.586814,2.422696 -0.584951,3.924655 -0.338115,0.303187 -0.492735,0.908627 -0.376305,1.617926 0.121089,0.665984 0.432192,1.163843 0.865316,1.356187 z m 0.07544,-2.230352 c 0.226342,-0.04192 0.390277,-0.277105 0.390277,-0.507173 -0.0037,-1.510809 -0.0065,-2.815301 0.471312,-3.712285 0.312966,-0.586346 1.000376,-1.365969 3.382087,-1.37016 2.338865,0.0043 3.026274,0.783814 3.339241,1.37016 0.477833,0.896984 0.475038,2.201476 0.471312,3.749543 -8.87e-4,0.230067 0.09687,0.396797 0.323212,0.439177 0.04285,0.04611 0.139718,0.307378 0.06893,0.734447 -0.07824,0.429863 -0.254285,0.645493 -0.234725,0.666451 -0.229135,-0.02934 -0.432192,0.105253 -0.506708,0.31576 -0.398659,1.134504 -1.154064,2.215915 -2.02124,2.893077 -0.119226,0.09315 -0.186291,0.297598 -0.181634,0.449425 0.02048,0.692996 0.03633,1.130776 0.09501,1.365502 0.174181,0.715352 0.760061,1.255125 1.529437,1.40928 1.524781,0.307843 3.819869,1.963958 5.115511,3.69226 0.256148,0.340909 0.328803,0.863451 0.16673,1.188992 -0.1155,0.231465 -0.336254,0.343705 -0.673437,0.343705 H 22.259641 c -0.337185,0 -0.557939,-0.11224 -0.673438,-0.343239 -0.163002,-0.326007 -0.08942,-0.848549 0.166729,-1.189925 1.295645,-1.727835 3.590732,-3.38395 5.114581,-3.691793 0.770307,-0.154155 1.356187,-0.693928 1.530369,-1.407884 0.05868,-0.236122 0.07453,-0.673902 0.09687,-1.426511 0.0046,-0.151827 -0.06334,-0.296667 -0.183496,-0.389812 -0.868109,-0.678093 -1.623513,-1.759504 -2.021241,-2.893077 -0.06706,-0.191878 -0.18629,-0.310171 -0.373511,-0.310171 -0.01863,0 -0.0382,8.87e-4 -0.05868,0.0032 -0.05496,-0.0298 -0.230999,-0.245437 -0.308308,-0.667383 -0.07172,-0.434986 0.02516,-0.696258 8.87e-4,-0.711627 z"
     id="path3854"
     inkscape:connector-curvature="0"
     style="fill:#000000;fill-opacity:1;stroke-width:1.35579" /><path
     d="m 36.949507,22.528819 c 0.122019,0 0.244038,-0.04658 0.337184,-0.139717 l 5.953872,-5.95428 c 0.853847,0.700216 1.901726,1.100506 3.020627,1.100506 1.280742,0 2.485103,-0.49879 3.390471,-1.404623 0.906298,-0.905833 1.404622,-2.10973 1.404622,-3.390471 0,-1.281206 -0.498324,-2.485103 -1.404622,-3.390935 -0.905368,-0.905833 -2.109729,-1.404623 -3.390471,-1.404623 -1.28074,0 -2.485102,0.49879 -3.390469,1.404623 -0.906299,0.905832 -1.404623,2.109729 -1.404623,3.390935 0,1.118728 0.399823,2.16614 1.100097,3.020162 l -5.953873,5.954338 c -0.186289,0.186289 -0.186289,0.488079 0,0.674368 0.09315,0.09315 0.215164,0.139717 0.337185,0.139717 z m 6.595581,-12.505151 c 0.725598,-0.725599 1.689648,-1.12519 2.716102,-1.12519 1.026456,0 1.990505,0.399591 2.716102,1.12519 0.725598,0.725596 1.125189,1.690111 1.125189,2.716566 0,1.025991 -0.399591,1.990504 -1.125189,2.716103 -0.725599,0.725596 -1.689646,1.125189 -2.716102,1.125189 -1.026454,0 -1.990504,-0.399593 -2.716102,-1.125189 -0.725597,-0.725599 -1.125188,-1.690112 -1.125188,-2.716103 0,-1.026455 0.399591,-1.99097 1.125188,-2.716566 z"
     id="path3856"
     inkscape:connector-curvature="0"
     style="fill:#000000;fill-opacity:1;stroke-width:1.35579" /><path
     d="m 29.292075,10.656528 v 4.17667 c 0,0.263599 0.213302,0.476901 0.476901,0.476901 0.263599,0 0.476901,-0.213302 0.476901,-0.476901 v -4.176089 c 2.419262,-0.242118 4.320985,-2.265571 4.320985,-4.747181 0,-2.643915 -2.150712,-4.7950938 -4.795092,-4.7950938 -2.644381,0 -4.795093,2.1511788 -4.795093,4.7950938 0,2.479689 1.898813,4.501978 4.315398,4.7466 z M 29.77177,2.068637 c 2.118112,0 3.841291,1.723178 3.841291,3.841291 0,2.118112 -1.723179,3.84129 -3.841291,3.84129 -2.118113,0 -3.841291,-1.723178 -3.841291,-3.84129 0,-2.118113 1.723178,-3.841291 3.841291,-3.841291 z"
     id="path3860"
     inkscape:connector-curvature="0"
     style="fill:#000000;fill-opacity:1;stroke-width:1.35579" /><path
     d="m 53.091497,24.434562 c -2.481028,0 -4.50355,1.900677 -4.74689,4.318192 H 37.108784 c -0.2636,0 -0.476901,0.213301 -0.476901,0.476901 0,0.263599 0.213301,0.476901 0.476901,0.476901 h 11.235823 c 0.243341,2.417515 2.265862,4.318193 4.74689,4.318193 2.644381,0 4.795094,-2.151179 4.795094,-4.795094 0,-2.643915 -2.150713,-4.795093 -4.795094,-4.795093 z m 0,8.636384 c -2.068572,0 -3.74867,-1.646858 -3.826679,-3.696684 0.01497,-0.04629 0.02916,-0.09326 0.02916,-0.144607 0,-0.05134 -0.0142,-0.09833 -0.02916,-0.144607 0.07801,-2.049825 1.758107,-3.696683 3.826679,-3.696683 2.118113,0 3.841291,1.723178 3.841291,3.84129 0,2.118112 -1.723178,3.841291 -3.841291,3.841291 z"
     id="path3862"
     inkscape:connector-curvature="0"
     style="fill:#000000;fill-opacity:1;stroke-width:1.35579" /><path
     d="m 19.823908,38.904604 c -0.186291,-0.18629 -0.488079,-0.18629 -0.674369,0 l -3.016202,3.017134 c -0.830968,-0.636121 -1.831519,-0.997756 -2.895697,-0.997756 -1.28074,0 -2.485103,0.498791 -3.39047,1.404623 -0.906298,0.905833 -1.404624,2.10973 -1.404624,3.390471 0,1.281206 0.498326,2.485103 1.404624,3.390936 0.905367,0.905832 2.10973,1.404622 3.39047,1.404622 1.280741,0 2.485103,-0.49879 3.39047,-1.404622 0.906298,-0.905833 1.404623,-2.10973 1.404623,-3.390936 0,-1.173392 -0.435801,-2.270928 -1.202906,-3.14515 l 2.994081,-2.994954 c 0.186288,-0.186291 0.186288,-0.488079 0,-0.674368 z m -3.870166,9.531039 c -0.725598,0.725599 -1.689647,1.12519 -2.716102,1.12519 -1.026455,0 -1.990503,-0.399591 -2.716103,-1.12519 -0.725596,-0.725598 -1.125188,-1.690111 -1.125188,-2.716567 0,-1.02599 0.399592,-1.990504 1.125188,-2.716102 0.7256,-0.725597 1.689648,-1.12519 2.716103,-1.12519 1.026455,0 1.990504,0.399593 2.716102,1.12519 0.725597,0.725598 1.125188,1.690113 1.125188,2.716102 0,1.026456 -0.399591,1.990969 -1.125188,2.716567 z"
     id="path3864"
     inkscape:connector-curvature="0"
     style="fill:#000000;fill-opacity:1;stroke-width:1.35579" /><path
     d="m 13.23764,17.535328 c 1.118901,0 2.16678,-0.40029 3.020627,-1.100506 l 5.953872,5.95428 c 0.09315,0.09315 0.215165,0.139717 0.337185,0.139717 0.12202,0 0.244039,-0.04658 0.337184,-0.139717 0.186289,-0.186289 0.186289,-0.488079 -10e-7,-0.674368 l -5.953872,-5.954338 c 0.700274,-0.854022 1.100098,-1.901434 1.100098,-3.020162 0,-1.281206 -0.498325,-2.485103 -1.404623,-3.390935 -0.905367,-0.905833 -2.109729,-1.404623 -3.39047,-1.404623 -1.28074,0 -2.485103,0.49879 -3.39047,1.404623 -0.906298,0.905832 -1.404624,2.109729 -1.404624,3.390935 0,1.280741 0.498326,2.484638 1.404624,3.39047 0.905367,0.905834 2.10973,1.404624 3.39047,1.404624 z m -2.716103,-7.51166 c 0.7256,-0.725599 1.689648,-1.12519 2.716103,-1.12519 1.026455,0 1.990504,0.399591 2.716102,1.12519 0.725597,0.725596 1.125188,1.690111 1.125188,2.716566 0,1.025991 -0.399591,1.990504 -1.125188,2.716103 -0.725598,0.725596 -1.689647,1.125189 -2.716102,1.125189 -1.026455,0 -1.990505,-0.399593 -2.716103,-1.125189 -0.725596,-0.725599 -1.125188,-1.690112 -1.125188,-2.716103 0,-1.026455 0.399592,-1.99097 1.125188,-2.716566 z"
     id="path3866"
     inkscape:connector-curvature="0"
     style="fill:#000000;fill-opacity:1;stroke-width:1.35579" /><path
     d="m 29.72706,39.395942 c -0.263599,0 -0.476901,0.213301 -0.476901,0.476901 v 7.93419 c -2.396499,0.263949 -4.273482,2.27704 -4.273482,4.74235 0,2.643913 2.150712,4.795095 4.795093,4.795095 2.64438,0 4.795092,-2.151182 4.795092,-4.795095 0,-2.495931 -1.923554,-4.529049 -4.362901,-4.751433 v -7.925107 c 0,-0.2636 -0.213301,-0.476901 -0.476901,-0.476901 z m 3.886001,13.153441 c 0,2.118112 -1.723179,3.841292 -3.841291,3.841292 -2.118113,0 -3.841291,-1.72318 -3.841291,-3.841292 0,-2.082078 1.667699,-3.77347 3.736153,-3.830638 0.02067,0.0028 0.03893,0.01217 0.06043,0.01217 0.03207,0 0.06008,-0.01224 0.09035,-0.01822 2.09663,0.02515 3.795649,1.73418 3.795649,3.836691 z"
     id="path3868"
     inkscape:connector-curvature="0"
     style="fill:#000000;fill-opacity:1;stroke-width:1.35579" /><path
     d="m 6.4073328,34.024749 c 2.4810282,0 4.5035512,-1.900678 4.7468912,-4.318193 h 11.235823 c 0.263599,0 0.476901,-0.213302 0.476901,-0.476901 0,-0.2636 -0.213302,-0.476901 -0.476901,-0.476901 H 11.154224 c -0.243341,-2.417515 -2.265863,-4.318192 -4.7468912,-4.318192 -2.6443802,0 -4.7950927,2.151178 -4.7950927,4.795093 0,2.643915 2.1507125,4.795094 4.7950927,4.795094 z m 0,-8.636384 c 2.0685712,0 3.7486702,1.646858 3.8266792,3.696683 -0.01497,0.04628 -0.02916,0.09326 -0.02916,0.144607 0,0.05134 0.01421,0.09833 0.02916,0.144607 -0.07801,2.049826 -1.758108,3.696684 -3.8266792,3.696684 -2.1181126,0 -3.8412902,-1.723179 -3.8412902,-3.841291 0,-2.118112 1.7231776,-3.84129 3.8412902,-3.84129 z"
     id="path3870"
     inkscape:connector-curvature="0"
     style="fill:#000000;fill-opacity:1;stroke-width:1.35579" /><path
     style="fill:#000000;fill-opacity:1;stroke:#000000;stroke-width:1.13386;stroke-opacity:1"
     d="m 22.007792,36.713551 c -0.467297,-0.111104 -0.628992,-0.698329 -0.353606,-1.284185 0.106268,-0.226078 0.728566,-0.957846 1.192578,-1.402369 0.887927,-0.850634 1.83961,-1.54333 2.742116,-1.995889 0.487484,-0.244448 0.744163,-0.343339 1.204953,-0.464235 0.564357,-0.14807 0.811155,-0.276107 1.110135,-0.57593 0.273617,-0.274388 0.409897,-0.499981 0.491778,-0.814072 0.07441,-0.285417 0.14005,-1.518071 0.08812,-1.654667 -0.02135,-0.05615 -0.220618,-0.274729 -0.442815,-0.485712 -0.772682,-0.733684 -1.291789,-1.493434 -1.652402,-2.418399 -0.150242,-0.385373 -0.239564,-0.494747 -0.428426,-0.52461 -0.124505,-0.01969 -0.143879,-0.03919 -0.248637,-0.250301 -0.131857,-0.265719 -0.19645,-0.618981 -0.163867,-0.896203 0.0203,-0.172693 0.03604,-0.202175 0.141037,-0.264125 0.231738,-0.136729 0.259361,-0.230406 0.260263,-0.882623 0.0033,-2.355222 0.279932,-3.384426 1.06706,-3.969393 0.631213,-0.469096 1.457555,-0.66307 2.80696,-0.658901 1.453059,0.0045 2.318227,0.254809 2.907689,0.841282 0.6381,0.634864 0.860391,1.598709 0.861208,3.734177 2.48e-4,0.608945 0.0067,0.679745 0.07133,0.785814 0.03909,0.06412 0.117418,0.132728 0.174063,0.152476 0.08878,0.03094 0.108596,0.06289 0.143608,0.231549 0.04674,0.225143 0.02165,0.495253 -0.07102,0.764615 -0.109392,0.317953 -0.168801,0.407895 -0.269423,0.407895 -0.139968,0 -0.285544,0.105093 -0.363222,0.262218 -0.03885,0.07857 -0.135701,0.296168 -0.215243,0.483557 -0.364999,0.859885 -0.997765,1.741071 -1.64482,2.290568 -0.384206,0.326278 -0.395526,0.363794 -0.358226,1.187283 0.01528,0.337282 0.04641,0.693917 0.06918,0.792524 0.0753,0.326072 0.244621,0.620375 0.508452,0.883749 0.300821,0.300299 0.562989,0.435129 1.126843,0.579523 1.289129,0.330123 2.901831,1.380026 4.220151,2.74741 0.585141,0.606916 0.886927,1.007182 0.975435,1.293738 0.150266,0.486503 0.04214,0.876207 -0.294209,1.060348 -0.103114,0.05645 -0.611586,0.06073 -7.824179,0.06577 -4.242644,0.0029 -7.767428,-0.0074 -7.832854,-0.02289 z"
     id="path28153" /><path
     d="m 65.588407,42.416695 c 0.445231,1.147544 1.181075,2.199613 2.05943,2.945238 -0.0121,0.398193 -0.0298,0.857397 -0.0624,0.991993 -0.08756,0.356743 -0.382827,0.61848 -0.791732,0.700447 -1.75019,0.353485 -4.250197,2.134414 -5.691146,4.054592 -0.476901,0.636179 -0.582156,1.535958 -0.256149,2.188438 0.281298,0.561663 0.8234,0.870904 1.526644,0.870904 h 15.026115 c 0.704175,0 1.246278,-0.309241 1.526644,-0.871371 0.326006,-0.652478 0.219821,-1.552722 -0.25708,-2.187505 -1.44002,-1.920644 -3.939092,-3.701573 -5.691146,-4.055058 -0.407975,-0.08196 -0.703243,-0.343704 -0.790801,-0.701845 -0.03166,-0.129472 -0.04936,-0.56539 -0.0624,-0.990594 0.870904,-0.739105 1.60209,-1.78093 2.049185,-2.918692 0.415427,-0.175579 0.748884,-0.688807 0.876493,-1.390652 0.1155,-0.703244 -0.03912,-1.307287 -0.377236,-1.610008 0.0019,-1.482398 -0.02329,-2.872585 -0.58495,-3.924655 -0.680886,-1.275619 -2.008198,-1.871279 -4.225045,-1.875005 -2.170273,0.0037 -3.497586,0.599386 -4.178474,1.875005 -0.557937,1.044619 -0.586813,2.422696 -0.58495,3.924655 -0.338115,0.303187 -0.492735,0.908627 -0.376305,1.617926 0.121089,0.665984 0.432192,1.163843 0.865315,1.356187 z m 0.07544,-2.230352 c 0.226342,-0.04192 0.390277,-0.277105 0.390277,-0.507173 -0.0037,-1.510809 -0.0065,-2.815301 0.471313,-3.712285 0.312966,-0.586346 1.000376,-1.365969 3.382086,-1.37016 2.338865,0.0043 3.026275,0.783814 3.339242,1.37016 0.477832,0.896984 0.475037,2.201476 0.471311,3.749543 -8.86e-4,0.230067 0.09687,0.396797 0.323212,0.439177 0.04285,0.04611 0.139718,0.307378 0.06893,0.734447 -0.07824,0.429863 -0.254285,0.645493 -0.234725,0.666451 -0.229135,-0.02934 -0.432191,0.105253 -0.506708,0.31576 -0.398659,1.134504 -1.154063,2.215915 -2.02124,2.893077 -0.119226,0.09315 -0.18629,0.297598 -0.181633,0.449425 0.02048,0.692997 0.03633,1.130776 0.09501,1.365502 0.174182,0.715352 0.760061,1.255125 1.529437,1.40928 1.524782,0.307843 3.819869,1.963958 5.115512,3.69226 0.256148,0.340909 0.328802,0.863451 0.16673,1.188992 -0.115501,0.231465 -0.336254,0.343705 -0.673437,0.343705 H 62.373046 c -0.337185,0 -0.557938,-0.11224 -0.673437,-0.343239 -0.163003,-0.326007 -0.08942,-0.848549 0.166729,-1.189925 1.295644,-1.727835 3.590732,-3.38395 5.11458,-3.691793 0.770307,-0.154155 1.356188,-0.693928 1.53037,-1.407884 0.05868,-0.236122 0.07453,-0.673901 0.09687,-1.426511 0.0046,-0.151827 -0.06335,-0.296667 -0.183495,-0.389812 -0.86811,-0.678093 -1.623513,-1.759504 -2.021241,-2.893077 -0.06706,-0.191878 -0.186291,-0.31017 -0.373511,-0.31017 -0.01863,0 -0.0382,8.86e-4 -0.05868,0.0032 -0.05496,-0.0298 -0.230999,-0.245437 -0.308309,-0.667383 -0.07172,-0.434986 0.02516,-0.696257 8.87e-4,-0.711626 z"
     id="path3854-1"
     inkscape:connector-curvature="0"
     style="fill:#000000;fill-opacity:1;stroke-width:1.35579" /><path
     d="m 77.062912,38.988035 c 0.12202,0 0.244039,-0.04658 0.337184,-0.139717 l 5.953873,-5.95428 c 0.853847,0.700216 1.901725,1.100506 3.020626,1.100506 1.280742,0 2.485104,-0.49879 3.390473,-1.404623 0.906301,-0.905833 1.404619,-2.10973 1.404619,-3.390471 0,-1.281206 -0.498318,-2.485103 -1.404619,-3.390935 -0.905369,-0.905833 -2.109731,-1.404623 -3.390473,-1.404623 -1.28074,0 -2.485102,0.49879 -3.390469,1.404623 -0.906298,0.905832 -1.404623,2.109729 -1.404623,3.390935 0,1.118728 0.399824,2.16614 1.100097,3.020162 l -5.953872,5.954338 c -0.18629,0.18629 -0.18629,0.488079 0,0.674368 0.09315,0.09315 0.215163,0.139717 0.337184,0.139717 z m 6.595582,-12.505151 c 0.725597,-0.725599 1.689647,-1.12519 2.716101,-1.12519 1.026456,0 1.990505,0.399591 2.716103,1.12519 0.725594,0.725597 1.125188,1.690111 1.125188,2.716566 0,1.025991 -0.399594,1.990504 -1.125188,2.716103 -0.7256,0.725596 -1.689647,1.125189 -2.716103,1.125189 -1.026454,0 -1.990504,-0.399593 -2.716101,-1.125189 -0.725598,-0.725599 -1.125189,-1.690112 -1.125189,-2.716103 0,-1.026455 0.399591,-1.990969 1.125189,-2.716566 z"
     id="path3856-7"
     inkscape:connector-curvature="0"
     style="fill:#000000;fill-opacity:1;stroke-width:1.35579" /><path
     d="m 82.984126,65.569228 c 0.905367,0.905831 2.109729,1.404619 3.390469,1.404619 1.280742,0 2.485104,-0.498788 3.390473,-1.404619 0.906301,-0.905833 1.404619,-2.10973 1.404619,-3.390936 0,-1.280742 -0.498318,-2.484638 -1.404619,-3.390471 -0.905369,-0.905832 -2.109731,-1.404623 -3.390473,-1.404623 -1.064178,0 -2.064728,0.361635 -2.895695,0.997756 L 80.462697,55.36382 c -0.18629,-0.18629 -0.48808,-0.18629 -0.674369,0 -0.186288,0.186289 -0.186289,0.488078 0,0.674368 l 2.994081,2.994953 c -0.767105,0.874223 -1.202906,1.971759 -1.202906,3.145151 0,1.281206 0.498325,2.485103 1.404623,3.390936 z m 6.106572,-6.107038 c 0.725594,0.725598 1.125188,1.690112 1.125188,2.716102 0,1.026456 -0.399594,1.990969 -1.125188,2.716567 -0.7256,0.725599 -1.689647,1.12519 -2.716103,1.12519 -1.026454,0 -1.990504,-0.399591 -2.716101,-1.12519 -0.725598,-0.725598 -1.125189,-1.690111 -1.125189,-2.716567 0,-1.02599 0.399591,-1.990504 1.125189,-2.716102 0.725597,-0.725597 1.689647,-1.12519 2.716101,-1.12519 1.026456,0 1.990503,0.399591 2.716103,1.12519 z"
     id="path3858-0"
     inkscape:connector-curvature="0"
     style="fill:#000000;fill-opacity:1;stroke-width:1.35579" /><path
     d="m 69.405481,27.115744 v 4.176671 c 0,0.263598 0.213301,0.4769 0.4769,0.4769 0.2636,0 0.476901,-0.213302 0.476901,-0.4769 v -4.17609 c 2.419262,-0.242118 4.320986,-2.265571 4.320986,-4.747181 0,-2.643915 -2.150713,-4.795094 -4.795093,-4.795094 -2.644381,0 -4.795093,2.151179 -4.795093,4.795094 0,2.479689 1.898814,4.501978 4.315399,4.7466 z m 0.479694,-8.587891 c 2.118113,0 3.841291,1.723178 3.841291,3.841291 0,2.118112 -1.723178,3.84129 -3.841291,3.84129 -2.118113,0 -3.84129,-1.723178 -3.84129,-3.84129 0,-2.118113 1.723177,-3.841291 3.84129,-3.841291 z"
     id="path3860-5"
     inkscape:connector-curvature="0"
     style="fill:#000000;fill-opacity:1;stroke-width:1.35579" /><path
     d="m 93.204901,40.893778 c -2.481023,0 -4.503549,1.900677 -4.746888,4.318192 H 77.222189 c -0.263599,0 -0.476901,0.213301 -0.476901,0.476901 0,0.263599 0.213302,0.476901 0.476901,0.476901 h 11.235824 c 0.24334,2.417515 2.265865,4.318193 4.746888,4.318193 2.644385,0 4.795099,-2.151179 4.795099,-4.795094 0,-2.643914 -2.150714,-4.795093 -4.795099,-4.795093 z m 0,8.636384 c -2.068571,0 -3.748666,-1.646858 -3.826677,-3.696684 0.01498,-0.04628 0.02917,-0.09326 0.02917,-0.144607 0,-0.05134 -0.01419,-0.09832 -0.02917,-0.144607 0.07803,-2.049825 1.758106,-3.696683 3.826677,-3.696683 2.118118,0 3.841289,1.723179 3.841289,3.84129 0,2.118112 -1.723171,3.841291 -3.841289,3.841291 z"
     id="path3862-6"
     inkscape:connector-curvature="0"
     style="fill:#000000;fill-opacity:1;stroke-width:1.35579" /><path
     d="m 59.937313,55.36382 c -0.18629,-0.18629 -0.488079,-0.18629 -0.674369,0 l -3.016202,3.017134 c -0.830968,-0.636121 -1.831518,-0.997756 -2.895697,-0.997756 -1.28074,0 -2.485102,0.498791 -3.39047,1.404623 -0.906298,0.905833 -1.404623,2.10973 -1.404623,3.390471 0,1.281206 0.498325,2.485103 1.404623,3.390936 0.905368,0.905831 2.10973,1.404619 3.39047,1.404619 1.280741,0 2.485103,-0.498788 3.39047,-1.404619 0.906299,-0.905833 1.404623,-2.10973 1.404623,-3.390936 0,-1.173392 -0.4358,-2.270928 -1.202906,-3.14515 l 2.994081,-2.994954 c 0.186289,-0.18629 0.186289,-0.488079 0,-0.674368 z m -3.870166,9.531039 c -0.725597,0.725599 -1.689647,1.12519 -2.716102,1.12519 -1.026455,0 -1.990503,-0.399591 -2.716102,-1.12519 -0.725597,-0.725598 -1.125189,-1.690111 -1.125189,-2.716567 0,-1.02599 0.399592,-1.990504 1.125189,-2.716102 0.725599,-0.725597 1.689647,-1.12519 2.716102,-1.12519 1.026455,0 1.990505,0.399593 2.716102,1.12519 0.725598,0.725598 1.125189,1.690113 1.125189,2.716102 0,1.026456 -0.399591,1.990969 -1.125189,2.716567 z"
     id="path3864-7"
     inkscape:connector-curvature="0"
     style="fill:#000000;fill-opacity:1;stroke-width:1.35579" /><path
     d="m 69.840466,55.855158 c -0.263599,0 -0.476902,0.213301 -0.476902,0.476901 v 7.93419 c -2.396498,0.263949 -4.273482,2.27704 -4.273482,4.74235 0,2.643916 2.150712,4.795099 4.795093,4.795099 2.64438,0 4.795093,-2.151183 4.795093,-4.795099 0,-2.495927 -1.923555,-4.529049 -4.362901,-4.751433 v -7.925107 c 0,-0.2636 -0.213302,-0.476901 -0.476901,-0.476901 z m 3.886,13.153441 c 0,2.11811 -1.723178,3.84129 -3.841291,3.84129 -2.118113,0 -3.84129,-1.72318 -3.84129,-3.84129 0,-2.082074 1.667698,-3.77347 3.736153,-3.830638 0.02067,0.0028 0.03893,0.01217 0.06043,0.01217 0.03207,0 0.06008,-0.01224 0.09035,-0.01822 2.09663,0.02515 3.79565,1.734181 3.79565,3.836694 z"
     id="path3868-4"
     inkscape:connector-curvature="0"
     style="fill:#000000;fill-opacity:1;stroke-width:1.35579" /><path
     style="fill:#000000;fill-opacity:1;stroke:#000000;stroke-width:1.13386;stroke-opacity:1"
     d="m 62.121198,53.172767 c -0.467297,-0.111104 -0.628993,-0.698329 -0.353607,-1.284185 0.106269,-0.226078 0.728566,-0.957846 1.192579,-1.402369 0.887927,-0.850634 1.839609,-1.54333 2.742116,-1.995888 0.487484,-0.244449 0.744163,-0.34334 1.204952,-0.464236 0.564357,-0.14807 0.811155,-0.276107 1.110135,-0.57593 0.273617,-0.274388 0.409897,-0.499981 0.491778,-0.814072 0.07441,-0.285417 0.14005,-1.518071 0.08812,-1.654667 -0.02135,-0.05615 -0.220618,-0.274729 -0.442815,-0.485712 -0.772681,-0.733684 -1.291789,-1.493434 -1.652401,-2.418399 -0.150243,-0.385373 -0.239564,-0.494747 -0.428427,-0.52461 -0.124504,-0.01968 -0.143878,-0.03919 -0.248637,-0.250301 -0.131857,-0.265719 -0.196449,-0.618981 -0.163867,-0.896203 0.0203,-0.172693 0.03603,-0.202175 0.141038,-0.264125 0.231737,-0.136729 0.25936,-0.230406 0.260263,-0.882623 0.0033,-2.355222 0.279931,-3.384426 1.06706,-3.969393 0.631213,-0.469096 1.457554,-0.66307 2.806959,-0.658901 1.453059,0.0045 2.318228,0.25481 2.907689,0.841282 0.638101,0.634864 0.860391,1.598709 0.861209,3.734177 2.47e-4,0.608945 0.0066,0.679745 0.07133,0.785814 0.03909,0.06412 0.117419,0.132728 0.174064,0.152476 0.08878,0.03094 0.108596,0.06289 0.143608,0.231549 0.04674,0.225143 0.02165,0.495253 -0.07102,0.764615 -0.109392,0.317953 -0.1688,0.407895 -0.269423,0.407895 -0.139968,0 -0.285543,0.105093 -0.363221,0.262218 -0.03885,0.07857 -0.135702,0.296168 -0.215244,0.483557 -0.364998,0.859885 -0.997764,1.741072 -1.64482,2.290569 -0.384206,0.326277 -0.395525,0.363793 -0.358225,1.187282 0.01528,0.337282 0.04641,0.693917 0.06918,0.792524 0.0753,0.326072 0.244621,0.620375 0.508452,0.883749 0.300822,0.300299 0.562989,0.435129 1.126844,0.579523 1.289129,0.330123 2.90183,1.380027 4.220151,2.74741 0.58514,0.606916 0.886927,1.007182 0.975434,1.293738 0.150266,0.486503 0.04214,0.876207 -0.294209,1.060348 -0.103114,0.05645 -0.611586,0.06073 -7.824178,0.06577 -4.242645,0.0029 -7.767429,-0.0074 -7.832855,-0.02289 z"
     id="path28153-4" /><path
     style="fill:none;fill-opacity:1;stroke:#000000;stroke-width:1.134;stroke-linecap:round;stroke-dasharray:none;stroke-opacity:1"
     d="m 39.674923,38.904604 6.614819,6.614819 16.690611,0.169448"
     id="path29066" /></svg>
