<?xml version="1.0" encoding="UTF-8" standalone="no"?>
<!-- Created with Inkscape (http://www.inkscape.org/) -->

<svg
   width="7.099823mm"
   height="7.2204895mm"
   viewBox="0 0 7.099823 7.2204895"
   version="1.1"
   id="svg5"
   xml:space="preserve"
   inkscape:version="1.2.2 (732a01da63, 2022-12-09)"
   sodipodi:docname="bonsai.svg"
   inkscape:export-filename="bonsai.svg"
   inkscape:export-xdpi="228.13658"
   inkscape:export-ydpi="228.13658"
   xmlns:inkscape="http://www.inkscape.org/namespaces/inkscape"
   xmlns:sodipodi="http://sodipodi.sourceforge.net/DTD/sodipodi-0.dtd"
   xmlns:xlink="http://www.w3.org/1999/xlink"
   xmlns="http://www.w3.org/2000/svg"
   xmlns:svg="http://www.w3.org/2000/svg"><sodipodi:namedview
     id="namedview7"
     pagecolor="#ffffff"
     bordercolor="#000000"
     borderopacity="0.25"
     inkscape:showpageshadow="2"
     inkscape:pageopacity="0.0"
     inkscape:pagecheckerboard="0"
     inkscape:deskcolor="#d1d1d1"
     inkscape:document-units="mm"
     showgrid="false"
     showguides="false"
     inkscape:zoom="7.9520201"
     inkscape:cx="470.88664"
     inkscape:cy="224.78565"
     inkscape:window-width="1920"
     inkscape:window-height="1111"
     inkscape:window-x="-9"
     inkscape:window-y="-9"
     inkscape:window-maximized="1"
     inkscape:current-layer="layer1" /><defs
     id="defs2"><linearGradient
       inkscape:collect="always"
       id="linearGradient45751"><stop
         style="stop-color:#f6ae2e;stop-opacity:1;"
         offset="0"
         id="stop45747" /><stop
         style="stop-color:#fa8dc4;stop-opacity:1;"
         offset="1"
         id="stop45749" /></linearGradient><linearGradient
       inkscape:collect="always"
       xlink:href="#linearGradient45751"
       id="linearGradient46560"
       gradientUnits="userSpaceOnUse"
       x1="27.576149"
       y1="74.5084"
       x2="27.576149"
       y2="87.9189"
       gradientTransform="translate(93.193535,-27.191887)" /></defs><g
     inkscape:label="Layer 1"
     inkscape:groupmode="layer"
     id="layer1"
     transform="translate(-109.71235,-53.351973)"><path
       id="path21944-23"
       style="font-size:4.17597px;font-family:'MS Mincho';-inkscape-font-specification:'Comfortaa Bold';fill:url(#linearGradient46560);fill-opacity:1;stroke-width:0.2"
       d="m 114.18941,53.352299 c -0.073,7.49e-4 -0.14375,0.02996 -0.20619,0.08682 -0.0169,0.0154 -0.0187,0.016 -0.0274,0.0072 -0.0113,-0.0113 -0.0585,-0.03137 -0.0858,-0.03617 -0.0875,-0.01544 -0.17846,0.03944 -0.20877,0.12609 l -0.01,0.0279 -0.016,-0.01602 c -0.009,-0.0089 -0.0269,-0.02247 -0.0408,-0.02997 -0.0241,-0.01296 -0.0274,-0.01389 -0.0687,-0.01395 -0.0385,-5e-5 -0.0465,0.0017 -0.0672,0.01137 -0.0265,0.01244 -0.0548,0.03594 -0.0682,0.05736 -0.005,0.008 -0.0136,0.02766 -0.0186,0.04341 -0.0184,0.0555 -0.002,0.114907 0.0455,0.160196 0.0213,0.02019 0.0253,0.02641 0.0253,0.03824 0,0.01958 0.0113,0.0607 0.0212,0.07752 0.005,0.0077 0.007,0.0141 0.007,0.01447 -6.8e-4,3.7e-4 -0.0112,0.0063 -0.0238,0.01292 -0.0126,0.0066 -0.0547,0.03003 -0.0935,0.05219 -0.15351,0.08762 -0.19232,0.109478 -0.22324,0.126608 l -0.032,0.01809 -0.0108,-0.0186 c -0.0147,-0.02505 -0.0499,-0.05645 -0.0791,-0.07028 -0.0386,-0.01827 -0.0752,-0.024 -0.11473,-0.0186 -0.0183,0.0025 -0.034,0.004 -0.0346,0.0031 -9.3e-4,-9.3e-4 0.007,-0.01459 0.017,-0.02997 0.0103,-0.01539 0.02,-0.03211 0.0212,-0.03721 0.002,-0.0091 0.003,-0.0089 0.0336,-0.0036 0.0704,0.01206 0.13895,-0.01277 0.18345,-0.06615 0.0859,-0.102977 0.054,-0.249735 -0.0667,-0.309025 -0.0172,-0.0085 -0.0284,-0.01759 -0.0315,-0.02429 -0.003,-0.0058 -0.013,-0.01893 -0.0227,-0.02945 -0.0393,-0.04263 -0.0865,-0.06408 -0.14211,-0.06408 h -0.0351 l -0.0274,-0.02067 c -0.0625,-0.04731 -0.1253,-0.06968 -0.20567,-0.07338 -0.0594,-0.0027 -0.10163,0.0035 -0.15245,0.02325 -0.0642,0.02491 -0.13322,0.08007 -0.16898,0.134359 -0.009,0.01313 -0.019,0.0238 -0.0227,0.02377 -0.004,-1e-4 -0.0169,-0.0029 -0.0295,-0.0062 -0.0284,-0.0076 -0.10106,-0.0079 -0.13539,-5.17e-4 l -0.0253,0.0057 -0.007,-0.01912 c -0.0135,-0.03808 -0.0516,-0.08583 -0.0868,-0.109038 -0.0521,-0.03431 -0.11961,-0.04824 -0.18293,-0.03721 -0.0767,0.01337 -0.14512,0.06972 -0.17518,0.143661 l -0.009,0.02274 -0.0114,-0.0062 c -0.0198,-0.01025 -0.0731,-0.01924 -0.0977,-0.01654 -0.0438,0.0048 -0.0764,0.01795 -0.108,0.04341 -0.0281,0.02266 -0.0361,0.03259 -0.0553,0.0708 l -0.0176,0.03514 v 0.05013 c 0,0.04994 -1e-5,0.05003 0.016,0.08216 0.0372,0.07459 0.10166,0.115202 0.185,0.115755 h 0.0315 l 0.0119,0.02532 c 0.0206,0.04344 0.0685,0.0833 0.12092,0.100769 0.007,0.0021 0.003,0.0049 -0.0165,0.01137 -0.0524,0.01771 -0.0889,0.05083 -0.11317,0.102836 -0.008,0.01713 -0.0149,0.03181 -0.0155,0.03256 -6.2e-4,7e-4 -0.008,-0.002 -0.0155,-0.0062 -0.0109,-0.0059 -0.0233,-0.0082 -0.0574,-0.0083 -0.0404,-6e-5 -0.0451,0.0011 -0.0636,0.01188 -0.011,0.0064 -0.026,0.01717 -0.0336,0.02377 -0.02,0.01755 -0.0387,0.05858 -0.0424,0.09198 l -0.003,0.02791 -0.0109,-0.0057 c -0.0209,-0.01082 -0.0611,-0.01564 -0.0868,-0.01034 -0.0677,0.01379 -0.10844,0.06253 -0.11214,0.134875 -0.002,0.03012 -5.8e-4,0.03598 0.01,0.05633 0.0294,0.05865 0.0696,0.08512 0.12867,0.08475 0.0248,-2e-4 0.0384,-0.0026 0.0532,-0.0093 0.0213,-0.0097 0.0211,-0.0099 0.0248,0.0155 0.003,0.02144 0.0178,0.05913 0.0315,0.07958 0.0437,0.06506 0.1148,0.103006 0.1912,0.102836 0.0634,-1.4e-4 0.11657,-0.02181 0.1602,-0.06563 l 0.0222,-0.02222 0.0191,0.01344 c 0.0527,0.03625 0.10647,0.05178 0.1664,0.04858 0.0493,-0.0027 0.0853,-0.01296 0.12195,-0.03514 l 0.0264,-0.01602 0.0356,0.01809 c 0.0517,0.02592 0.0795,0.03194 0.14367,0.03204 0.0297,1e-4 0.0621,-0.0012 0.0718,-0.0031 0.0171,-0.0034 0.0176,-0.0035 0.0176,0.0067 0,0.01766 -0.0165,0.05604 -0.0367,0.08527 -0.0399,0.05776 -0.05,0.07437 -0.0708,0.112654 -0.0567,0.104175 -0.0694,0.146773 -0.062,0.207223 0.008,0.06146 0.0445,0.152135 0.0832,0.203605 0.0537,0.07157 0.17912,0.203679 0.27853,0.294039 0.0314,0.02852 0.056,0.05381 0.0548,0.05581 -0.001,0.002 6.7e-4,0.0022 0.004,10e-4 0.008,-0.0031 0.14727,0.117495 0.19121,0.165365 0.0595,0.06487 0.09,0.111804 0.0956,0.144694 0.003,0.02019 -0.004,0.06476 -0.015,0.08837 -0.006,0.01403 -0.0453,0.05523 -0.15555,0.165882 h -1.71204 -0.0294 c -0.29223,0 -0.54312,0.251093 -0.54312,0.543119 v 0.05943 c -0.38688,0.04923 -0.6873,0.380324 -0.6873,0.780314 v 2.128552 c 0,0.433794 0.35324,0.787549 0.78704,0.787549 h 5.52524 c 0.43379,0 0.78755,-0.353755 0.78755,-0.787549 v -2.128552 c 0,-0.39999 -0.30086,-0.731079 -0.68782,-0.780314 v -0.05943 c 0,-0.292268 -0.25074,-0.543119 -0.54311,-0.543119 h -1.78749 c -0.028,-0.02878 -0.0546,-0.05893 -0.0682,-0.07803 -0.0309,-0.04337 -0.0521,-0.08646 -0.0558,-0.112138 -0.007,-0.05099 -0.0294,-0.09399 -0.0832,-0.156062 -0.0383,-0.04413 -0.0772,-0.08003 -0.12971,-0.11989 -0.0419,-0.03179 -0.0653,-0.05962 -0.0739,-0.0894 -0.008,-0.02632 -0.005,-0.04693 0.009,-0.06925 0.0128,-0.02039 0.0209,-0.02425 0.0522,-0.02429 0.06,-6e-5 0.12706,-0.02601 0.17621,-0.0677 0.0372,-0.03156 0.10736,-0.06034 0.15297,-0.06305 0.0183,-10e-4 0.0396,-0.0036 0.047,-0.0057 l 0.0129,-0.0041 0.0139,0.02739 c 0.0531,0.10785 0.18968,0.138035 0.28474,0.06253 0.0175,-0.01388 0.0546,-0.06221 0.0548,-0.07131 1.8e-4,-0.0137 0.007,-0.01586 0.031,-0.0088 0.0338,0.0098 0.0844,0.0072 0.11214,-0.0062 0.0305,-0.0147 0.0614,-0.04571 0.0755,-0.07596 0.0107,-0.02272 0.0119,-0.03042 0.0119,-0.06511 0,-0.03788 -5.4e-4,-0.04077 -0.016,-0.06976 -0.0168,-0.03147 -0.0416,-0.05573 -0.0698,-0.06873 -0.0219,-0.01017 -0.0561,-0.01667 -0.076,-0.01447 -0.0174,0.002 -0.0174,0.0021 -0.0269,-0.0186 -0.0193,-0.04215 -0.0698,-0.07762 -0.11886,-0.08372 -0.0376,-0.0047 -0.0885,0.0095 -0.11265,0.03152 l -0.009,0.0083 -0.0103,-0.01602 c -0.005,-0.0087 -0.0145,-0.02195 -0.0202,-0.02945 -0.0111,-0.01423 -0.059,-0.05478 -0.0646,-0.05478 -0.002,0 -0.006,-0.0025 -0.01,-0.0057 -0.004,-0.0031 -0.0215,-0.01117 -0.0398,-0.01757 -0.0286,-0.01 -0.0398,-0.01137 -0.0791,-0.01137 -0.0393,0 -0.0506,0.0015 -0.0785,0.01137 -0.0324,0.01144 -0.0577,0.02443 -0.0682,0.03462 -0.008,0.0077 -0.011,0.0062 -0.0176,-0.0062 -0.009,-0.01748 -0.0438,-0.04221 -0.0693,-0.04961 -0.0568,-0.0165 -0.1148,0.0068 -0.15037,0.05994 l -0.007,0.0093 -0.0186,-0.01292 c -0.0611,-0.04223 -0.13247,-0.05428 -0.20516,-0.03411 -0.021,0.0058 -0.0245,0.0058 -0.0264,0.001 -0.004,-0.01092 -0.0403,-0.04639 -0.0568,-0.05529 -0.014,-0.0074 -0.0238,-0.0088 -0.0584,-0.0088 -0.0355,0 -0.0439,0.0015 -0.0594,0.0098 -0.01,0.0053 -0.0229,0.01455 -0.0279,0.02015 l -0.009,0.0098 -0.0191,-0.01395 c -0.0293,-0.02234 -0.0505,-0.02877 -0.0884,-0.02687 -0.039,0.002 -0.0583,0.01024 -0.0847,0.03669 -0.0219,0.02185 -0.0372,0.05653 -0.0372,0.08527 0,0.01023 -3.8e-4,0.01809 -0.002,0.01809 -0.006,0 -0.0357,-0.01342 -0.0357,-0.01602 0,-0.0086 0.0184,-0.05403 0.0336,-0.0832 0.0225,-0.04325 0.0545,-0.08119 0.10542,-0.124023 0.0762,-0.06411 0.1995,-0.139191 0.26407,-0.161231 0.0364,-0.01247 0.1351,-0.01028 0.20412,0.0041 0.0536,0.01123 0.10851,0.02883 0.1571,0.05116 0.0695,0.03192 0.16787,0.06111 0.2527,0.07441 0.0316,0.0049 0.0597,0.0061 0.10387,0.0047 0.0649,-0.0021 0.0857,-0.0064 0.17104,-0.03514 0.0427,-0.01437 0.0533,-0.01843 0.12351,-0.04858 l 0.0346,-0.01499 0.0134,0.0098 c 0.0692,0.0519 0.18887,0.06852 0.27905,0.03824 0.0171,-0.0057 0.0319,-0.01085 0.0326,-0.01085 8.6e-4,0 0.007,0.01065 0.0145,0.02325 0.0651,0.115379 0.21757,0.136534 0.31212,0.04341 0.0228,-0.0224 0.0496,-0.06794 0.0496,-0.08372 0,-0.0041 0.002,-0.0078 0.004,-0.0078 0.002,0 0.029,0.01454 0.0594,0.03204 0.069,0.03965 0.1622,0.08468 0.2005,0.09715 0.016,0.0052 0.0396,0.0097 0.0522,0.0098 0.0205,2e-4 0.0231,-8.06e-4 0.0243,-0.0093 0.002,-0.01213 -0.012,-0.03434 -0.0382,-0.06253 l -0.0212,-0.02274 0.0351,-0.0067 c 0.0194,-0.0039 0.0447,-0.01219 0.0563,-0.01809 0.0463,-0.02346 0.0819,-0.06769 0.0992,-0.123506 l 0.007,-0.02325 0.03,-0.0052 c 0.0487,-0.0082 0.0996,-0.03738 0.12609,-0.07235 0.0172,-0.02261 0.0332,-0.0601 0.0388,-0.09043 0.0147,-0.08219 -0.0324,-0.17386 -0.10749,-0.20929 -0.0223,-0.01035 -0.0263,-0.01367 -0.0238,-0.02067 0.006,-0.01838 0.007,-0.08286 0.002,-0.10542 -0.0169,-0.07687 -0.0867,-0.144137 -0.16433,-0.158647 -0.0525,-0.0098 -0.11225,0.002 -0.15607,0.03152 -0.0117,0.0078 -0.0221,0.01447 -0.0227,0.01447 -10e-4,0 -0.002,-0.0037 -0.002,-0.0083 0,-0.01413 -0.0164,-0.07073 -0.0295,-0.101286 -0.0359,-0.08433 -0.10102,-0.153006 -0.18448,-0.193786 -0.0351,-0.01712 -0.1042,-0.03721 -0.12713,-0.03721 h -0.0119 v -0.02842 c 0,-0.06032 -0.0313,-0.112954 -0.0837,-0.140044 -0.0273,-0.01412 -0.0709,-0.0209 -0.0982,-0.0155 l -0.0212,0.0041 -0.0114,-0.01499 c -0.0161,-0.02135 -0.0587,-0.06211 -0.0682,-0.06511 -0.004,-0.0014 -0.008,-0.0039 -0.008,-0.0057 0,-0.0018 -0.0129,-0.0088 -0.0284,-0.01602 -0.0444,-0.02046 -0.0891,-0.03061 -0.1328,-0.03049 h -5.2e-4 z m -2.33732,0.640271 h 5.1e-4 5.2e-4 c 6.8e-4,9.6e-4 0.0105,0.01486 0.0207,0.03101 l 0.0186,0.02945 -0.009,0.02791 c -0.005,0.01536 -0.0102,0.02898 -0.0114,0.02997 -0.001,0.001 -0.008,-0.0052 -0.016,-0.01344 -0.0208,-0.02173 -0.0483,-0.03941 -0.0765,-0.04961 l -0.0248,-0.0088 0.0145,-0.0031 c 0.0183,-0.0038 0.0612,-0.02542 0.0734,-0.03669 0.004,-0.0035 0.007,-0.0059 0.009,-0.0067 z m 1.4366,0.219625 0.003,0.01137 c 0.006,0.02381 0.0324,0.0682 0.0543,0.08992 0.0255,0.02533 0.059,0.04451 0.092,0.05271 0.0173,0.0043 0.0233,0.0078 0.0263,0.01602 0.01,0.02594 0.0234,0.04838 0.0429,0.07028 0.0116,0.013 0.0278,0.03672 0.0357,0.05271 0.0138,0.02788 0.0471,0.0675 0.0703,0.08268 h 5.2e-4 l 0.0103,0.0062 -0.0165,-5.17e-4 c -0.0263,-2.7e-4 -0.0646,-0.0091 -0.14728,-0.03411 -0.0764,-0.02309 -0.21254,-0.06774 -0.2589,-0.08527 l -0.0243,-0.0093 0.003,-0.03204 c 0.003,-0.03759 -0.005,-0.08051 -0.0202,-0.111104 -0.009,-0.01664 -0.009,-0.02112 -0.005,-0.02532 0.01,-0.009 0.0776,-0.05279 0.10645,-0.06873 z m -2.79001,2.957959 h 5.52525 c 0.27278,0 0.48679,0.213489 0.48679,0.486275 v 2.128552 c 0,0.272786 -0.21401,0.488343 -0.48679,0.488343 h -5.52525 c -0.27278,0 -0.48627,-0.215557 -0.48627,-0.488343 v -2.128552 c 0,-0.272786 0.21349,-0.486275 0.48627,-0.486275 z m 0.71314,1.027327 c -0.28958,-2.58e-4 -0.52397,0.234412 -0.524,0.523999 3e-5,0.289588 0.23442,0.524257 0.524,0.523999 0.28938,-2.4e-5 0.52397,-0.234611 0.524,-0.523999 -3e-5,-0.289387 -0.23462,-0.523975 -0.524,-0.523999 z m 4.1,0 c -0.28938,2.4e-5 -0.52396,0.234612 -0.52399,0.523999 3e-5,0.289388 0.23461,0.523975 0.52399,0.523999 0.28938,-2.9e-5 0.52346,-0.234615 0.52349,-0.523999 -3e-5,-0.289383 -0.23411,-0.52397 -0.52349,-0.523999 z"
       inkscape:export-filename="OneDrive\Documents\GitHub\pennhacks\public\bonsai.svg"
       inkscape:export-xdpi="228.13658"
       inkscape:export-ydpi="228.13658"
       sodipodi:nodetypes="ssccccccscsccsccsccccsscccccccsscccccccccccscccssccsscccccscccscscccccccccscccccccccsscccscccccccsscsssssscsscsccscsssccccsccccsscccsccccscsssccsccccccscscccsssscsccsccsccccsccsscsccccccccccccccscssccscssccccscscscccsccccccccccccscssccccscccccccssssssssscccccccccc" /></g></svg>
